<svg width="246" height="24" viewBox="0 0 246 24" fill="none" xmlns="http://www.w3.org/2000/svg">
<path d="M0.278152 23.4904V19.7784H3.22215V4.80239H0.278152V1.09039H11.7982C13.1635 1.09039 14.3475 1.32505 15.3502 1.79439C16.3742 2.24239 17.1635 2.89305 17.7182 3.74639C18.2942 4.57839 18.5822 5.58105 18.5822 6.75439V7.07439C18.5822 8.09839 18.3902 8.94105 18.0062 9.60239C17.6222 10.2424 17.1635 10.7437 16.6302 11.1064C16.1182 11.4477 15.6275 11.6931 15.1582 11.8424V12.4184C15.6275 12.5464 16.1395 12.7917 16.6942 13.1544C17.2488 13.4957 17.7182 13.9971 18.1022 14.6584C18.5075 15.3197 18.7102 16.1837 18.7102 17.2504V17.5704C18.7102 18.8077 18.4222 19.8744 17.8462 20.7704C17.2702 21.6451 16.4702 22.3171 15.4462 22.7864C14.4435 23.2557 13.2702 23.4904 11.9262 23.4904H0.278152ZM7.44615 19.6504H11.4142C12.3315 19.6504 13.0675 19.4264 13.6222 18.9784C14.1982 18.5304 14.4862 17.8904 14.4862 17.0584V16.7384C14.4862 15.9064 14.2088 15.2664 13.6542 14.8184C13.0995 14.3704 12.3528 14.1464 11.4142 14.1464H7.44615V19.6504ZM7.44615 10.3064H11.3502C12.2248 10.3064 12.9395 10.0824 13.4942 9.63439C14.0702 9.18639 14.3582 8.56772 14.3582 7.77839V7.45839C14.3582 6.64772 14.0808 6.02905 13.5262 5.60239C12.9715 5.15439 12.2462 4.93039 11.3502 4.93039H7.44615V10.3064ZM21.3362 23.4904V7.61839H25.3682V23.4904H21.3362ZM23.3522 5.76239C22.6268 5.76239 22.0082 5.52772 21.4962 5.05839C21.0055 4.58905 20.7602 3.97039 20.7602 3.20239C20.7602 2.43439 21.0055 1.81572 21.4962 1.34639C22.0082 0.877052 22.6268 0.642385 23.3522 0.642385C24.0988 0.642385 24.7175 0.877052 25.2082 1.34639C25.6988 1.81572 25.9442 2.43439 25.9442 3.20239C25.9442 3.97039 25.6988 4.58905 25.2082 5.05839C24.7175 5.52772 24.0988 5.76239 23.3522 5.76239ZM35.4682 23.9384C33.3988 23.9384 31.7028 23.4904 30.3802 22.5944C29.0575 21.6984 28.2575 20.4184 27.9802 18.7544L31.6922 17.7944C31.8415 18.5411 32.0868 19.1277 32.4282 19.5544C32.7908 19.9811 33.2282 20.2904 33.7402 20.4824C34.2735 20.6531 34.8495 20.7384 35.4682 20.7384C36.4068 20.7384 37.1002 20.5784 37.5482 20.2584C37.9962 19.9171 38.2202 19.5011 38.2202 19.0104C38.2202 18.5197 38.0068 18.1464 37.5802 17.8904C37.1535 17.6131 36.4708 17.3891 35.5322 17.2184L34.6362 17.0584C33.5268 16.8451 32.5135 16.5571 31.5962 16.1944C30.6788 15.8104 29.9428 15.2877 29.3882 14.6264C28.8335 13.9651 28.5562 13.1117 28.5562 12.0664C28.5562 10.4877 29.1322 9.28239 30.2842 8.45039C31.4362 7.59705 32.9508 7.17039 34.8282 7.17039C36.5988 7.17039 38.0708 7.56505 39.2442 8.35439C40.4175 9.14372 41.1855 10.1784 41.5482 11.4584L37.8042 12.6104C37.6335 11.7997 37.2815 11.2237 36.7482 10.8824C36.2362 10.5411 35.5962 10.3704 34.8282 10.3704C34.0602 10.3704 33.4735 10.5091 33.0682 10.7864C32.6628 11.0424 32.4602 11.4051 32.4602 11.8744C32.4602 12.3864 32.6735 12.7704 33.1002 13.0264C33.5268 13.2611 34.1028 13.4424 34.8282 13.5704L35.7242 13.7304C36.9188 13.9437 37.9962 14.2317 38.9562 14.5944C39.9375 14.9357 40.7055 15.4371 41.2602 16.0984C41.8362 16.7384 42.1242 17.6131 42.1242 18.7224C42.1242 20.3864 41.5162 21.6771 40.3002 22.5944C39.1055 23.4904 37.4948 23.9384 35.4682 23.9384ZM52.1534 23.9384C50.6174 23.9384 49.2201 23.6184 47.9614 22.9784C46.7241 22.3384 45.7427 21.4104 45.0174 20.1944C44.2921 18.9784 43.9294 17.5064 43.9294 15.7784V15.3304C43.9294 13.6024 44.2921 12.1304 45.0174 10.9144C45.7427 9.69839 46.7241 8.77039 47.9614 8.13039C49.2201 7.49039 50.6174 7.17039 52.1534 7.17039C53.6681 7.17039 54.9694 7.43705 56.0574 7.97039C57.1454 8.50372 58.0201 9.23972 58.6814 10.1784C59.3641 11.0957 59.8121 12.1411 60.0254 13.3144L56.1214 14.1464C56.0361 13.5064 55.8441 12.9304 55.5454 12.4184C55.2467 11.9064 54.8201 11.5011 54.2654 11.2024C53.7321 10.9037 53.0601 10.7544 52.2494 10.7544C51.4387 10.7544 50.7027 10.9357 50.0414 11.2984C49.4014 11.6397 48.8894 12.1624 48.5054 12.8664C48.1427 13.5491 47.9614 14.3917 47.9614 15.3944V15.7144C47.9614 16.7171 48.1427 17.5704 48.5054 18.2744C48.8894 18.9571 49.4014 19.4797 50.0414 19.8424C50.7027 20.1837 51.4387 20.3544 52.2494 20.3544C53.4654 20.3544 54.3827 20.0451 55.0014 19.4264C55.6414 18.7864 56.0467 17.9544 56.2174 16.9304L60.1214 17.8584C59.8441 18.9891 59.3641 20.0237 58.6814 20.9624C58.0201 21.8797 57.1454 22.6051 56.0574 23.1384C54.9694 23.6717 53.6681 23.9384 52.1534 23.9384ZM68.5354 23.7464C67.2981 23.7464 66.2101 23.4691 65.2714 22.9144C64.3541 22.3384 63.6394 21.5491 63.1274 20.5464C62.6154 19.5437 62.3594 18.3917 62.3594 17.0904V7.61839H66.3914V16.7704C66.3914 17.9651 66.6794 18.8611 67.2554 19.4584C67.8527 20.0557 68.6954 20.3544 69.7834 20.3544C71.0207 20.3544 71.9807 19.9491 72.6634 19.1384C73.3461 18.3064 73.6874 17.1544 73.6874 15.6824V7.61839H77.7194V23.4904H73.7514V21.4104H73.1754C72.9194 21.9437 72.4394 22.4664 71.7354 22.9784C71.0314 23.4904 69.9647 23.7464 68.5354 23.7464ZM81.2461 23.4904V7.61839H85.2781V23.4904H81.2461ZM83.2621 5.76239C82.5368 5.76239 81.9181 5.52772 81.4061 5.05839C80.9155 4.58905 80.6701 3.97039 80.6701 3.20239C80.6701 2.43439 80.9155 1.81572 81.4061 1.34639C81.9181 0.877052 82.5368 0.642385 83.2621 0.642385C84.0088 0.642385 84.6275 0.877052 85.1181 1.34639C85.6088 1.81572 85.8541 2.43439 85.8541 3.20239C85.8541 3.97039 85.6088 4.58905 85.1181 5.05839C84.6275 5.52772 84.0088 5.76239 83.2621 5.76239ZM94.8662 23.4904C93.8208 23.4904 92.9675 23.1704 92.3062 22.5304C91.6662 21.8691 91.3462 20.9944 91.3462 19.9064V10.9464H87.3782V7.61839H91.3462V2.69039H95.3782V7.61839H99.7302V10.9464H95.3782V19.2024C95.3782 19.8424 95.6768 20.1624 96.2742 20.1624H99.3462V23.4904H94.8662Z" fill="white"/>
<path d="M113.242 23.4904L107.546 1.09039H111.898L116.634 20.7704H117.082L121.818 1.09039H126.17L120.474 23.4904H113.242ZM134.294 23.9384C132.716 23.9384 131.318 23.6077 130.102 22.9464C128.908 22.2637 127.969 21.3144 127.286 20.0984C126.625 18.8611 126.294 17.4104 126.294 15.7464V15.3624C126.294 13.6984 126.625 12.2584 127.286 11.0424C127.948 9.80505 128.876 8.85572 130.07 8.19439C131.265 7.51172 132.652 7.17039 134.23 7.17039C135.788 7.17039 137.142 7.52239 138.294 8.22639C139.446 8.90905 140.342 9.86905 140.982 11.1064C141.622 12.3224 141.942 13.7411 141.942 15.3624V16.7384H130.39C130.433 17.8264 130.838 18.7117 131.606 19.3944C132.374 20.0771 133.313 20.4184 134.422 20.4184C135.553 20.4184 136.385 20.1731 136.918 19.6824C137.452 19.1917 137.857 18.6477 138.134 18.0504L141.43 19.7784C141.132 20.3331 140.694 20.9411 140.118 21.6024C139.564 22.2424 138.817 22.7971 137.878 23.2664C136.94 23.7144 135.745 23.9384 134.294 23.9384ZM130.422 13.7304H137.846C137.761 12.8131 137.388 12.0771 136.726 11.5224C136.086 10.9677 135.244 10.6904 134.198 10.6904C133.11 10.6904 132.246 10.9677 131.606 11.5224C130.966 12.0771 130.572 12.8131 130.422 13.7304ZM144.571 23.4904V7.61839H148.539V9.69839H149.115C149.371 9.14372 149.851 8.62105 150.555 8.13039C151.259 7.61839 152.326 7.36239 153.755 7.36239C154.992 7.36239 156.07 7.65039 156.987 8.22639C157.926 8.78105 158.651 9.55972 159.163 10.5624C159.675 11.5437 159.931 12.6957 159.931 14.0184V23.4904H155.899V14.3384C155.899 13.1437 155.6 12.2477 155.003 11.6504C154.427 11.0531 153.595 10.7544 152.507 10.7544C151.27 10.7544 150.31 11.1704 149.627 12.0024C148.944 12.8131 148.603 13.9544 148.603 15.4264V23.4904H144.571ZM168.972 23.4904C167.927 23.4904 167.074 23.1704 166.412 22.5304C165.772 21.8691 165.452 20.9944 165.452 19.9064V10.9464H161.484V7.61839H165.452V2.69039H169.484V7.61839H173.836V10.9464H169.484V19.2024C169.484 19.8424 169.783 20.1624 170.38 20.1624H173.452V23.4904H168.972ZM182.574 23.7464C181.337 23.7464 180.249 23.4691 179.31 22.9144C178.393 22.3384 177.678 21.5491 177.166 20.5464C176.654 19.5437 176.398 18.3917 176.398 17.0904V7.61839H180.43V16.7704C180.43 17.9651 180.718 18.8611 181.294 19.4584C181.891 20.0557 182.734 20.3544 183.822 20.3544C185.059 20.3544 186.019 19.9491 186.702 19.1384C187.385 18.3064 187.726 17.1544 187.726 15.6824V7.61839H191.758V23.4904H187.79V21.4104H187.214C186.958 21.9437 186.478 22.4664 185.774 22.9784C185.07 23.4904 184.003 23.7464 182.574 23.7464ZM195.285 23.4904V7.61839H199.253V9.41039H199.829C200.064 8.77039 200.448 8.30105 200.981 8.00239C201.536 7.70372 202.176 7.55439 202.901 7.55439H204.821V11.1384H202.837C201.813 11.1384 200.97 11.4157 200.309 11.9704C199.648 12.5037 199.317 13.3357 199.317 14.4664V23.4904H195.285ZM213.682 23.9384C212.103 23.9384 210.706 23.6077 209.49 22.9464C208.295 22.2637 207.357 21.3144 206.674 20.0984C206.013 18.8611 205.682 17.4104 205.682 15.7464V15.3624C205.682 13.6984 206.013 12.2584 206.674 11.0424C207.335 9.80505 208.263 8.85572 209.458 8.19439C210.653 7.51172 212.039 7.17039 213.618 7.17039C215.175 7.17039 216.53 7.52239 217.682 8.22639C218.834 8.90905 219.73 9.86905 220.37 11.1064C221.01 12.3224 221.33 13.7411 221.33 15.3624V16.7384H209.778C209.821 17.8264 210.226 18.7117 210.994 19.3944C211.762 20.0771 212.701 20.4184 213.81 20.4184C214.941 20.4184 215.773 20.1731 216.306 19.6824C216.839 19.1917 217.245 18.6477 217.522 18.0504L220.818 19.7784C220.519 20.3331 220.082 20.9411 219.506 21.6024C218.951 22.2424 218.205 22.7971 217.266 23.2664C216.327 23.7144 215.133 23.9384 213.682 23.9384ZM209.81 13.7304H217.234C217.149 12.8131 216.775 12.0771 216.114 11.5224C215.474 10.9677 214.631 10.6904 213.586 10.6904C212.498 10.6904 211.634 10.9677 210.994 11.5224C210.354 12.0771 209.959 12.8131 209.81 13.7304ZM230.551 23.9384C228.481 23.9384 226.785 23.4904 225.463 22.5944C224.14 21.6984 223.34 20.4184 223.063 18.7544L226.775 17.7944C226.924 18.5411 227.169 19.1277 227.511 19.5544C227.873 19.9811 228.311 20.2904 228.823 20.4824C229.356 20.6531 229.932 20.7384 230.551 20.7384C231.489 20.7384 232.183 20.5784 232.631 20.2584C233.079 19.9171 233.303 19.5011 233.303 19.0104C233.303 18.5197 233.089 18.1464 232.663 17.8904C232.236 17.6131 231.553 17.3891 230.615 17.2184L229.719 17.0584C228.609 16.8451 227.596 16.5571 226.679 16.1944C225.761 15.8104 225.025 15.2877 224.471 14.6264C223.916 13.9651 223.639 13.1117 223.639 12.0664C223.639 10.4877 224.215 9.28239 225.367 8.45039C226.519 7.59705 228.033 7.17039 229.911 7.17039C231.681 7.17039 233.153 7.56505 234.327 8.35439C235.5 9.14372 236.268 10.1784 236.631 11.4584L232.887 12.6104C232.716 11.7997 232.364 11.2237 231.831 10.8824C231.319 10.5411 230.679 10.3704 229.911 10.3704C229.143 10.3704 228.556 10.5091 228.151 10.7864C227.745 11.0424 227.543 11.4051 227.543 11.8744C227.543 12.3864 227.756 12.7704 228.183 13.0264C228.609 13.2611 229.185 13.4424 229.911 13.5704L230.807 13.7304C232.001 13.9437 233.079 14.2317 234.039 14.5944C235.02 14.9357 235.788 15.4371 236.343 16.0984C236.919 16.7384 237.207 17.6131 237.207 18.7224C237.207 20.3864 236.599 21.6771 235.383 22.5944C234.188 23.4904 232.577 23.9384 230.551 23.9384ZM242.308 23.9384C241.455 23.9384 240.729 23.6611 240.132 23.1064C239.556 22.5304 239.268 21.7944 239.268 20.8984C239.268 20.0024 239.556 19.2771 240.132 18.7224C240.729 18.1464 241.455 17.8584 242.308 17.8584C243.183 17.8584 243.908 18.1464 244.484 18.7224C245.06 19.2771 245.348 20.0024 245.348 20.8984C245.348 21.7944 245.06 22.5304 244.484 23.1064C243.908 23.6611 243.183 23.9384 242.308 23.9384Z" fill="#005490"/>
</svg>
